# xmcd
#
# Track frame offsets: 
#        180
#        15251
#        36331
#        50849
#        72029
#        86536
#        100234
#        117213
#        133328
#        150778
#        170126
#        187238
#        200749
#        213233
#
# Disc length: 3084 seconds
#
# Revision: 4
# Processed by: cddbd v1.5.2PL0 Copyright (c) Steve Scherf et al.
# Submitted via: ExactAudioCopy v1.0b4
#
DISCID=c50c0a0e
DTITLE=Joao Paulo and Daniel - Joao Paulo and Daniel - Os 14 maiores suces
DTITLE=sos
DYEAR=1900
DGENRE=Other
TTITLE0=01. Eu Me Amarrei
TTITLE1=02. Só Eu E Você
TTITLE2=03. Tá Faltando Amor
TTITLE3=04. Estou Apaixonado (Estoy Enamorado)
TTITLE4=05. Fogo De Amor
TTITLE5=06. Só Dá Você Na Minha Vida
TTITLE6=07. Cuida De Mim
TTITLE7=08. Rosto Molhado
TTITLE8=09. Hoje Eu Sei
TTITLE9=10. Que Dure Para Sempre
TTITLE10=11. Desejo De Amar
TTITLE11=12. Aos Trancos E Barrancos
TTITLE12=13. O Cheiro Dela
TTITLE13=14. Dia De Visita
EXTD=
EXTT0=
EXTT1=
EXTT2=
EXTT3=
EXTT4=
EXTT5=
EXTT6=
EXTT7=
EXTT8=
EXTT9=
EXTT10=
EXTT11=
EXTT12=
EXTT13=
PLAYORDER=
